<svg viewBox="0 0 24 24" xmlns="http://www.w3.org/2000/svg">
	<path d="M0 1.01408V1.01408C3.18344 1.85333 5.91561 3.89795 7.6186 6.71547L7.98638 7.32394V6.02005C7.98638 3.68104 6.92755 1.46776 5.10638 0V0L5.56159 0.138688C8.38302 0.998302 10.7162 2.99903 11.9961 5.65634V5.65634V5.65634C13.278 2.99892 15.6128 0.998624 18.4354 0.139482L18.8936 0V0C17.0753 1.46791 16.0183 3.67946 16.0183 6.01638V7.32394L16.3838 6.71779C18.084 3.89826 20.816 1.85227 24 1.01408V1.01408L23.6702 1.34622C21.9432 3.0854 20.6314 5.19233 19.833 7.50962V7.50962C19.304 9.04479 19.0073 10.6665 18.9538 12.2894V12.2894C18.8809 14.5006 19.2521 16.7259 20.047 18.7907L21.0894 21.4986L17.303 22.5402C13.8296 23.4956 10.1626 23.4952 6.68948 22.539L2.91064 21.4986L3.95241 18.7923C4.74765 16.7265 5.11887 14.5017 5.04532 12.2893V12.2893C4.99134 10.6657 4.69423 9.04447 4.16483 7.50865V7.50865C3.36624 5.19193 2.0551 3.08531 0.329117 1.34578L0 1.01408Z" fill="#242424" />
	<path d="M15 14L10.5 16.5981V11.4019L15 14Z" fill="#ffffff" />
</svg>
