<svg viewBox="0 0 512 512">
	<path d="M350.257 191.865L286.123 256L350.257 320.135C358.601 328.478 358.53 341.984 350.257 350.257C341.984 358.53 328.408 358.53 320.135 350.257L256 286.123L191.865 350.257C183.522 358.601 170.016 358.53 161.743 350.257C153.47 341.984 153.47 328.408 161.743 320.135L225.877 256L161.743 191.865C153.399 183.522 153.47 170.016 161.743 161.743C170.016 153.47 183.592 153.47 191.865 161.743L256 225.877L320.135 161.743C328.478 153.399 341.984 153.47 350.257 161.743C358.53 170.016 358.601 183.522 350.257 191.865Z" />
</svg>
