<svg viewBox="0 0 24 24">
	<path d="M21 5H11.72L11.4 4C11.1926 3.41323 10.8077 2.9055 10.2989 2.54716C9.79005 2.18882 9.18236 1.9976 8.56 2H3C2.20435 2 1.44129 2.31607 0.87868 2.87868C0.31607 3.44129 0 4.20435 0 5L0 19C0 19.7956 0.31607 20.5587 0.87868 21.1213C1.44129 21.6839 2.20435 22 3 22H21C21.7956 22 22.5587 21.6839 23.1213 21.1213C23.6839 20.5587 24 19.7956 24 19V8C24 7.20435 23.6839 6.44129 23.1213 5.87868C22.5587 5.31607 21.7956 5 21 5ZM22 19C22 19.2652 21.8946 19.5196 21.7071 19.7071C21.5196 19.8946 21.2652 20 21 20H3C2.73478 20 2.48043 19.8946 2.29289 19.7071C2.10536 19.5196 2 19.2652 2 19V5C2 4.73478 2.10536 4.48043 2.29289 4.29289C2.48043 4.10536 2.73478 4 3 4H8.56C8.76964 3.99946 8.97416 4.06482 9.14463 4.18684C9.3151 4.30886 9.44291 4.48138 9.51 4.68L10.28 7H21C21.2652 7 21.5196 7.10536 21.7071 7.29289C21.8946 7.48043 22 7.73478 22 8V19Z" />
	<path d="M12.71 9.29C12.6149 9.19896 12.5028 9.1276 12.38 9.08C12.1365 8.97999 11.8635 8.97999 11.62 9.08C11.4972 9.1276 11.3851 9.19896 11.29 9.29L8.29 12.29C8.1017 12.4783 7.99591 12.7337 7.99591 13C7.99591 13.2663 8.1017 13.5217 8.29 13.71C8.4783 13.8983 8.7337 14.0041 9 14.0041C9.2663 14.0041 9.5217 13.8983 9.71 13.71L11 12.41V18C11 18.2652 11.1054 18.5196 11.2929 18.7071C11.4804 18.8946 11.7348 19 12 19C12.2652 19 12.5196 18.8946 12.7071 18.7071C12.8946 18.5196 13 18.2652 13 18V12.41L14.29 13.71C14.383 13.8037 14.4936 13.8781 14.6154 13.9289C14.7373 13.9797 14.868 14.0058 15 14.0058C15.132 14.0058 15.2627 13.9797 15.3846 13.9289C15.5064 13.8781 15.617 13.8037 15.71 13.71C15.8037 13.617 15.8781 13.5064 15.9289 13.3846C15.9797 13.2627 16.0058 13.132 16.0058 13C16.0058 12.868 15.9797 12.7373 15.9289 12.6154C15.8781 12.4936 15.8037 12.383 15.71 12.29L12.71 9.29Z" />
</svg>
