<svg viewBox="0 0 26 21">
<path d="M10.1816 3.24679C10.6404 2.81726 11.0164 2.963 11.0164 3.57059V17.4293C11.0164 18.037 10.6404 18.1828 10.1816 17.7531L5.86313 13.7138H3V7.28659H5.86313L10.1816 3.24679ZM12.8241 14.3335C12.6044 14.3335 12.3842 14.2553 12.2166 14.0982C11.881 13.7842 11.881 13.2754 12.2166 12.962C13.6676 11.6047 13.6676 9.39643 12.2166 8.03919C11.881 7.7253 11.881 7.21647 12.2166 6.90295C12.5521 6.58942 13.0961 6.58942 13.4309 6.90295C15.5519 8.88724 15.5519 12.115 13.4309 14.0989C13.2637 14.2546 13.0439 14.3335 12.8241 14.3335ZM15.8745 15.8483C15.6555 15.8483 15.4349 15.77 15.2673 15.613C14.9317 15.299 14.9317 14.7902 15.2673 14.4766C17.6112 12.2842 17.6112 8.71653 15.2673 6.52408C14.9317 6.21019 14.9317 5.70136 15.2673 5.38784C15.6029 5.07395 16.1469 5.07395 16.4816 5.38784C17.9425 6.75279 18.7466 8.56894 18.7466 10.5C18.7466 12.4315 17.9425 14.2471 16.4824 15.613C16.3148 15.77 16.0947 15.8483 15.8745 15.8483ZM18.9264 17.3634C18.7062 17.3634 18.4864 17.2851 18.3184 17.1283C17.9833 16.8141 17.9833 16.3056 18.3184 15.9921C19.8872 14.5243 20.7506 12.5742 20.7506 10.5C20.7506 8.42577 19.8872 6.47562 18.3184 5.0086C17.9833 4.69508 17.9833 4.18588 18.3184 3.87236C18.654 3.55884 19.1984 3.55884 19.5332 3.87236C21.4261 5.64262 22.4685 7.99697 22.4685 10.5C22.4685 13.0034 21.4261 15.3577 19.5332 17.1276C19.3656 17.2848 19.1462 17.3634 18.9264 17.3634Z"/>
</svg>
