<svg viewBox="0 0 26 21">
<path d="M10.1816 3.24679C10.6408 2.81726 11.0168 2.963 11.0168 3.57059V17.4293C11.0168 18.037 10.6408 18.1828 10.1816 17.7531L5.86313 13.7138H3V7.28659H5.86313L10.1816 3.24679ZM12.8245 14.3335C12.6047 14.3335 12.3846 14.2553 12.2166 14.0982C11.881 13.7842 11.881 13.2754 12.2166 12.962C13.6676 11.6047 13.6676 9.39644 12.2166 8.03919C11.881 7.7253 11.881 7.21647 12.2166 6.90295C12.5521 6.58942 13.0961 6.58942 13.4313 6.90295C15.5519 8.88724 15.5519 12.115 13.4313 14.0989C13.2637 14.2546 13.0443 14.3335 12.8245 14.3335"/>
</svg>
