<svg viewBox="0 0 26 21">
<path d="M10.1816 3.24679C10.6404 2.81726 11.0164 2.963 11.0164 3.57059V17.4293C11.0164 18.037 10.6404 18.1828 10.1816 17.7531L5.86274 13.7138H3V7.28659H5.86274L10.1816 3.24679ZM12.8241 14.3335C12.6044 14.3335 12.3842 14.2553 12.2162 14.0982C11.8806 13.7842 11.8806 13.2754 12.2162 12.962C13.6672 11.6047 13.6672 9.39643 12.2162 8.03919C11.8806 7.7253 11.8806 7.21647 12.2162 6.90295C12.5518 6.58942 13.0957 6.58942 13.4309 6.90295C15.5519 8.88724 15.5519 12.115 13.4309 14.0989C13.2637 14.2546 13.0439 14.3335 12.8241 14.3335ZM15.8749 15.8483C15.6547 15.8483 15.4349 15.77 15.2669 15.613C14.9317 15.299 14.9317 14.7902 15.2669 14.4766C17.6112 12.2842 17.6112 8.71653 15.2669 6.52408C14.9317 6.21019 14.9317 5.70136 15.2669 5.38784C15.6025 5.07395 16.1465 5.07395 16.4816 5.38784C17.9421 6.75279 18.7462 8.56894 18.7462 10.5C18.7462 12.4315 17.9421 14.2471 16.482 15.613C16.3145 15.77 16.0947 15.8483 15.8749 15.8483Z"/>
</svg>
